<svg xmlns="http://www.w3.org/2000/svg" xmlns:xlink="http://www.w3.org/1999/xlink" width="670" height="385.65"><rect width="670" height="385.65" rx="5" ry="5" class="a"/><svg y="0%" x="0%"><circle cx="20" cy="20" r="6" fill="#ff5f58"/><circle cx="40" cy="20" r="6" fill="#ffbd2e"/><circle cx="60" cy="20" r="6" fill="#18c132"/></svg><svg height="325.65" viewBox="0 0 63 32.565" width="630" x="15" xmlns="http://www.w3.org/2000/svg" xmlns:xlink="http://www.w3.org/1999/xlink" y="50"><style>@keyframes k{0%{transform:translateX(0)}16.7%{transform:translateX(-63px)}31.1%{transform:translateX(-126px)}43.1%{transform:translateX(-189px)}44.4%{transform:translateX(-252px)}46.3%{transform:translateX(-315px)}47.6%{transform:translateX(-378px)}49.5%{transform:translateX(-441px)}50.8%{transform:translateX(-504px)}52.5%{transform:translateX(-567px)}53.8%{transform:translateX(-630px)}55.6%{transform:translateX(-693px)}57%{transform:translateX(-756px)}58.6%{transform:translateX(-819px)}59.9%{transform:translateX(-882px)}61.6%{transform:translateX(-945px)}63%{transform:translateX(-1008px)}64.8%{transform:translateX(-1071px)}66.2%{transform:translateX(-1134px)}67.9%{transform:translateX(-1197px)}69.3%{transform:translateX(-1260px)}71.2%{transform:translateX(-1323px)}72.5%{transform:translateX(-1386px)}74.3%{transform:translateX(-1449px)}75.6%{transform:translateX(-1512px)}77.4%{transform:translateX(-1575px)}78.7%{transform:translateX(-1638px)}80.4%{transform:translateX(-1701px)}81.7%{transform:translateX(-1764px)}83.2%{transform:translateX(-1827px)}84.6%{transform:translateX(-1890px)}86.1%{transform:translateX(-1953px)}87.4%{transform:translateX(-2016px)}89.5%{transform:translateX(-2079px)}90.8%{transform:translateX(-2142px)}to{transform:translateX(-2205px)}}.a{fill:#282d35}.f{fill:#b9c0cb;white-space:pre}</style><g font-family="Monaco,Consolas,Menlo,'Bitstream Vera Sans Mono','Powerline Symbols',monospace" font-size="1.67"><defs><symbol id="1"><text y="1.67" class="f">🌧</text><text x="3.006" y="1.67" class="f">🌥</text><text x="6.012" y="1.67" class="f">🌞</text><text x="9.018" y="1.67" class="f">🌞</text><text x="13.026" y="1.67" style="white-space:pre" fill="#66c2cd" font-weight="700">foundling@[box]</text><text x="29.058" y="1.67" style="white-space:pre" fill="#71bef2" font-weight="700">-&gt;</text></symbol><symbol id="2"><text y="1.67" class="f">$</text></symbol><symbol id="a"><path fill="transparent" d="M0 0h63v15H0z"/></symbol><symbol id="b"><path fill="#6f7683" d="M0 0h1.102v2.171H0z"/></symbol></defs><path class="a" d="M0 0h63v32.565H0z"/><g style="animation-duration:5.375124s;animation-iteration-count:infinite;animation-name:k;animation-timing-function:steps(1,end)"><svg width="2268"><svg><use xlink:href="#a"/><use xlink:href="#b" x="-.004"/></svg><svg x="63"><use xlink:href="#a"/><use xlink:href="#b" x="1.996" y="2.146"/><use xlink:href="#1"/><use xlink:href="#2" y="2.171"/></svg><svg x="126"><use xlink:href="#a"/><use xlink:href="#b" x="1.996" y="2.146"/><use xlink:href="#1"/><use xlink:href="#2" y="2.171"/></svg><svg x="189"><use xlink:href="#a"/><use xlink:href="#b" x="-.004" y="4.317"/><use xlink:href="#1"/><use xlink:href="#2" y="2.171"/></svg><svg x="252"><use xlink:href="#a"/><use xlink:href="#b" x="1.996" y="6.488"/><use xlink:href="#1"/><use xlink:href="#2" y="2.171"/><use xlink:href="#1" y="4.342"/><use xlink:href="#2" y="6.513"/></svg><svg x="315"><use xlink:href="#a"/><use xlink:href="#b" x="-.004" y="8.659"/><use xlink:href="#1"/><use xlink:href="#2" y="2.171"/><use xlink:href="#1" y="4.342"/><use xlink:href="#2" y="6.513"/></svg><svg x="378"><use xlink:href="#a"/><use xlink:href="#b" x="1.996" y="10.83"/><use xlink:href="#1"/><use xlink:href="#2" y="2.171"/><use xlink:href="#1" y="4.342"/><use xlink:href="#2" y="6.513"/><use xlink:href="#1" y="8.684"/><use xlink:href="#2" y="10.855"/></svg><svg x="441"><use xlink:href="#a"/><use xlink:href="#b" x="-.004" y="13.001"/><use xlink:href="#1"/><use xlink:href="#2" y="2.171"/><use xlink:href="#1" y="4.342"/><use xlink:href="#2" y="6.513"/><use xlink:href="#1" y="8.684"/><use xlink:href="#2" y="10.855"/></svg><svg x="504"><use xlink:href="#a"/><use xlink:href="#b" x="1.996" y="15.172"/><use xlink:href="#1"/><use xlink:href="#2" y="2.171"/><use xlink:href="#1" y="4.342"/><use xlink:href="#2" y="6.513"/><use xlink:href="#1" y="8.684"/><use xlink:href="#2" y="10.855"/><use xlink:href="#1" y="13.026"/><use xlink:href="#2" y="15.197"/></svg><svg x="567"><use xlink:href="#a"/><use xlink:href="#b" x="-.004" y="17.343"/><use xlink:href="#1"/><use xlink:href="#2" y="2.171"/><use xlink:href="#1" y="4.342"/><use xlink:href="#2" y="6.513"/><use xlink:href="#1" y="8.684"/><use xlink:href="#2" y="10.855"/><use xlink:href="#1" y="13.026"/><use xlink:href="#2" y="15.197"/></svg><svg x="630"><use xlink:href="#a"/><use xlink:href="#b" x="1.996" y="19.514"/><use xlink:href="#1"/><use xlink:href="#2" y="2.171"/><use xlink:href="#1" y="4.342"/><use xlink:href="#2" y="6.513"/><use xlink:href="#1" y="8.684"/><use xlink:href="#2" y="10.855"/><use xlink:href="#1" y="13.026"/><use xlink:href="#2" y="15.197"/><use xlink:href="#1" y="17.368"/><use xlink:href="#2" y="19.539"/></svg><svg x="693"><use xlink:href="#a"/><use xlink:href="#b" x="-.004" y="21.685"/><use xlink:href="#1"/><use xlink:href="#2" y="2.171"/><use xlink:href="#1" y="4.342"/><use xlink:href="#2" y="6.513"/><use xlink:href="#1" y="8.684"/><use xlink:href="#2" y="10.855"/><use xlink:href="#1" y="13.026"/><use xlink:href="#2" y="15.197"/><use xlink:href="#1" y="17.368"/><use xlink:href="#2" y="19.539"/></svg><svg x="756"><use xlink:href="#a"/><use xlink:href="#b" x="1.996" y="23.856"/><use xlink:href="#1"/><use xlink:href="#2" y="2.171"/><use xlink:href="#1" y="4.342"/><use xlink:href="#2" y="6.513"/><use xlink:href="#1" y="8.684"/><use xlink:href="#2" y="10.855"/><use xlink:href="#1" y="13.026"/><use xlink:href="#2" y="15.197"/><use xlink:href="#1" y="17.368"/><use xlink:href="#2" y="19.539"/><use xlink:href="#1" y="21.71"/><use xlink:href="#2" y="23.881"/></svg><svg x="819"><use xlink:href="#a"/><use xlink:href="#b" x="-.004" y="26.027"/><use xlink:href="#1"/><use xlink:href="#2" y="2.171"/><use xlink:href="#1" y="4.342"/><use xlink:href="#2" y="6.513"/><use xlink:href="#1" y="8.684"/><use xlink:href="#2" y="10.855"/><use xlink:href="#1" y="13.026"/><use xlink:href="#2" y="15.197"/><use xlink:href="#1" y="17.368"/><use xlink:href="#2" y="19.539"/><use xlink:href="#1" y="21.71"/><use xlink:href="#2" y="23.881"/></svg><svg x="882"><use xlink:href="#a"/><use xlink:href="#b" x="1.996" y="28.198"/><use xlink:href="#1"/><use xlink:href="#2" y="2.171"/><use xlink:href="#1" y="4.342"/><use xlink:href="#2" y="6.513"/><use xlink:href="#1" y="8.684"/><use xlink:href="#2" y="10.855"/><use xlink:href="#1" y="13.026"/><use xlink:href="#2" y="15.197"/><use xlink:href="#1" y="17.368"/><use xlink:href="#2" y="19.539"/><use xlink:href="#1" y="21.71"/><use xlink:href="#2" y="23.881"/><use xlink:href="#1" y="26.052"/><use xlink:href="#2" y="28.223"/></svg><svg x="945"><use xlink:href="#a"/><use xlink:href="#b" x="-.004" y="30.369"/><use xlink:href="#1"/><use xlink:href="#2" y="2.171"/><use xlink:href="#1" y="4.342"/><use xlink:href="#2" y="6.513"/><use xlink:href="#1" y="8.684"/><use xlink:href="#2" y="10.855"/><use xlink:href="#1" y="13.026"/><use xlink:href="#2" y="15.197"/><use xlink:href="#1" y="17.368"/><use xlink:href="#2" y="19.539"/><use xlink:href="#1" y="21.71"/><use xlink:href="#2" y="23.881"/><use xlink:href="#1" y="26.052"/><use xlink:href="#2" y="28.223"/></svg><svg x="1008"><use xlink:href="#a"/><use xlink:href="#b" x="1.996" y="30.369"/><use xlink:href="#2"/><use xlink:href="#1" y="2.171"/><use xlink:href="#2" y="4.342"/><use xlink:href="#1" y="6.513"/><use xlink:href="#2" y="8.684"/><use xlink:href="#1" y="10.855"/><use xlink:href="#2" y="13.026"/><use xlink:href="#1" y="15.197"/><use xlink:href="#2" y="17.368"/><use xlink:href="#1" y="19.539"/><use xlink:href="#2" y="21.71"/><use xlink:href="#1" y="23.881"/><use xlink:href="#2" y="26.052"/><use xlink:href="#1" y="28.223"/><use xlink:href="#2" y="30.394"/></svg><svg x="1071"><use xlink:href="#a"/><use xlink:href="#b" x="-.004" y="30.369"/><use xlink:href="#1"/><use xlink:href="#2" y="2.171"/><use xlink:href="#1" y="4.342"/><use xlink:href="#2" y="6.513"/><use xlink:href="#1" y="8.684"/><use xlink:href="#2" y="10.855"/><use xlink:href="#1" y="13.026"/><use xlink:href="#2" y="15.197"/><use xlink:href="#1" y="17.368"/><use xlink:href="#2" y="19.539"/><use xlink:href="#1" y="21.71"/><use xlink:href="#2" y="23.881"/><use xlink:href="#1" y="26.052"/><use xlink:href="#2" y="28.223"/></svg><svg x="1134"><use xlink:href="#a"/><use xlink:href="#b" x="1.996" y="30.369"/><use xlink:href="#2"/><use xlink:href="#1" y="2.171"/><use xlink:href="#2" y="4.342"/><use xlink:href="#1" y="6.513"/><use xlink:href="#2" y="8.684"/><use xlink:href="#1" y="10.855"/><use xlink:href="#2" y="13.026"/><use xlink:href="#1" y="15.197"/><use xlink:href="#2" y="17.368"/><use xlink:href="#1" y="19.539"/><use xlink:href="#2" y="21.71"/><use xlink:href="#1" y="23.881"/><use xlink:href="#2" y="26.052"/><use xlink:href="#1" y="28.223"/><use xlink:href="#2" y="30.394"/></svg><svg x="1197"><use xlink:href="#a"/><use xlink:href="#b" x="-.004" y="30.369"/><use xlink:href="#1"/><use xlink:href="#2" y="2.171"/><use xlink:href="#1" y="4.342"/><use xlink:href="#2" y="6.513"/><use xlink:href="#1" y="8.684"/><use xlink:href="#2" y="10.855"/><use xlink:href="#1" y="13.026"/><use xlink:href="#2" y="15.197"/><use xlink:href="#1" y="17.368"/><use xlink:href="#2" y="19.539"/><use xlink:href="#1" y="21.71"/><use xlink:href="#2" y="23.881"/><use xlink:href="#1" y="26.052"/><use xlink:href="#2" y="28.223"/></svg><svg x="1260"><use xlink:href="#a"/><use xlink:href="#b" x="1.996" y="30.369"/><use xlink:href="#2"/><use xlink:href="#1" y="2.171"/><use xlink:href="#2" y="4.342"/><use xlink:href="#1" y="6.513"/><use xlink:href="#2" y="8.684"/><use xlink:href="#1" y="10.855"/><use xlink:href="#2" y="13.026"/><use xlink:href="#1" y="15.197"/><use xlink:href="#2" y="17.368"/><use xlink:href="#1" y="19.539"/><use xlink:href="#2" y="21.71"/><use xlink:href="#1" y="23.881"/><use xlink:href="#2" y="26.052"/><use xlink:href="#1" y="28.223"/><use xlink:href="#2" y="30.394"/></svg><svg x="1323"><use xlink:href="#a"/><use xlink:href="#b" x="-.004" y="30.369"/><use xlink:href="#1"/><use xlink:href="#2" y="2.171"/><use xlink:href="#1" y="4.342"/><use xlink:href="#2" y="6.513"/><use xlink:href="#1" y="8.684"/><use xlink:href="#2" y="10.855"/><use xlink:href="#1" y="13.026"/><use xlink:href="#2" y="15.197"/><use xlink:href="#1" y="17.368"/><use xlink:href="#2" y="19.539"/><use xlink:href="#1" y="21.71"/><use xlink:href="#2" y="23.881"/><use xlink:href="#1" y="26.052"/><use xlink:href="#2" y="28.223"/></svg><svg x="1386"><use xlink:href="#a"/><use xlink:href="#b" x="1.996" y="30.369"/><use xlink:href="#2"/><use xlink:href="#1" y="2.171"/><use xlink:href="#2" y="4.342"/><use xlink:href="#1" y="6.513"/><use xlink:href="#2" y="8.684"/><use xlink:href="#1" y="10.855"/><use xlink:href="#2" y="13.026"/><use xlink:href="#1" y="15.197"/><use xlink:href="#2" y="17.368"/><use xlink:href="#1" y="19.539"/><use xlink:href="#2" y="21.71"/><use xlink:href="#1" y="23.881"/><use xlink:href="#2" y="26.052"/><use xlink:href="#1" y="28.223"/><use xlink:href="#2" y="30.394"/></svg><svg x="1449"><use xlink:href="#a"/><use xlink:href="#b" x="-.004" y="30.369"/><use xlink:href="#1"/><use xlink:href="#2" y="2.171"/><use xlink:href="#1" y="4.342"/><use xlink:href="#2" y="6.513"/><use xlink:href="#1" y="8.684"/><use xlink:href="#2" y="10.855"/><use xlink:href="#1" y="13.026"/><use xlink:href="#2" y="15.197"/><use xlink:href="#1" y="17.368"/><use xlink:href="#2" y="19.539"/><use xlink:href="#1" y="21.71"/><use xlink:href="#2" y="23.881"/><use xlink:href="#1" y="26.052"/><use xlink:href="#2" y="28.223"/></svg><svg x="1512"><use xlink:href="#a"/><use xlink:href="#b" x="1.996" y="30.369"/><use xlink:href="#2"/><use xlink:href="#1" y="2.171"/><use xlink:href="#2" y="4.342"/><use xlink:href="#1" y="6.513"/><use xlink:href="#2" y="8.684"/><use xlink:href="#1" y="10.855"/><use xlink:href="#2" y="13.026"/><use xlink:href="#1" y="15.197"/><use xlink:href="#2" y="17.368"/><use xlink:href="#1" y="19.539"/><use xlink:href="#2" y="21.71"/><use xlink:href="#1" y="23.881"/><use xlink:href="#2" y="26.052"/><use xlink:href="#1" y="28.223"/><use xlink:href="#2" y="30.394"/></svg><svg x="1575"><use xlink:href="#a"/><use xlink:href="#b" x="-.004" y="30.369"/><use xlink:href="#1"/><use xlink:href="#2" y="2.171"/><use xlink:href="#1" y="4.342"/><use xlink:href="#2" y="6.513"/><use xlink:href="#1" y="8.684"/><use xlink:href="#2" y="10.855"/><use xlink:href="#1" y="13.026"/><use xlink:href="#2" y="15.197"/><use xlink:href="#1" y="17.368"/><use xlink:href="#2" y="19.539"/><use xlink:href="#1" y="21.71"/><use xlink:href="#2" y="23.881"/><use xlink:href="#1" y="26.052"/><use xlink:href="#2" y="28.223"/></svg><svg x="1638"><use xlink:href="#a"/><use xlink:href="#b" x="1.996" y="30.369"/><use xlink:href="#2"/><use xlink:href="#1" y="2.171"/><use xlink:href="#2" y="4.342"/><use xlink:href="#1" y="6.513"/><use xlink:href="#2" y="8.684"/><use xlink:href="#1" y="10.855"/><use xlink:href="#2" y="13.026"/><use xlink:href="#1" y="15.197"/><use xlink:href="#2" y="17.368"/><use xlink:href="#1" y="19.539"/><use xlink:href="#2" y="21.71"/><use xlink:href="#1" y="23.881"/><use xlink:href="#2" y="26.052"/><use xlink:href="#1" y="28.223"/><use xlink:href="#2" y="30.394"/></svg><svg x="1701"><use xlink:href="#a"/><use xlink:href="#b" x="-.004" y="30.369"/><use xlink:href="#1"/><use xlink:href="#2" y="2.171"/><use xlink:href="#1" y="4.342"/><use xlink:href="#2" y="6.513"/><use xlink:href="#1" y="8.684"/><use xlink:href="#2" y="10.855"/><use xlink:href="#1" y="13.026"/><use xlink:href="#2" y="15.197"/><use xlink:href="#1" y="17.368"/><use xlink:href="#2" y="19.539"/><use xlink:href="#1" y="21.71"/><use xlink:href="#2" y="23.881"/><use xlink:href="#1" y="26.052"/><use xlink:href="#2" y="28.223"/></svg><svg x="1764"><use xlink:href="#a"/><use xlink:href="#b" x="1.996" y="30.369"/><use xlink:href="#2"/><use xlink:href="#1" y="2.171"/><use xlink:href="#2" y="4.342"/><use xlink:href="#1" y="6.513"/><use xlink:href="#2" y="8.684"/><use xlink:href="#1" y="10.855"/><use xlink:href="#2" y="13.026"/><use xlink:href="#1" y="15.197"/><use xlink:href="#2" y="17.368"/><use xlink:href="#1" y="19.539"/><use xlink:href="#2" y="21.71"/><use xlink:href="#1" y="23.881"/><use xlink:href="#2" y="26.052"/><use xlink:href="#1" y="28.223"/><use xlink:href="#2" y="30.394"/></svg><svg x="1827"><use xlink:href="#a"/><use xlink:href="#b" x="-.004" y="30.369"/><use xlink:href="#1"/><use xlink:href="#2" y="2.171"/><use xlink:href="#1" y="4.342"/><use xlink:href="#2" y="6.513"/><use xlink:href="#1" y="8.684"/><use xlink:href="#2" y="10.855"/><use xlink:href="#1" y="13.026"/><use xlink:href="#2" y="15.197"/><use xlink:href="#1" y="17.368"/><use xlink:href="#2" y="19.539"/><use xlink:href="#1" y="21.71"/><use xlink:href="#2" y="23.881"/><use xlink:href="#1" y="26.052"/><use xlink:href="#2" y="28.223"/></svg><svg x="1890"><use xlink:href="#a"/><use xlink:href="#b" x="1.996" y="30.369"/><use xlink:href="#2"/><use xlink:href="#1" y="2.171"/><use xlink:href="#2" y="4.342"/><use xlink:href="#1" y="6.513"/><use xlink:href="#2" y="8.684"/><use xlink:href="#1" y="10.855"/><use xlink:href="#2" y="13.026"/><use xlink:href="#1" y="15.197"/><use xlink:href="#2" y="17.368"/><use xlink:href="#1" y="19.539"/><use xlink:href="#2" y="21.71"/><use xlink:href="#1" y="23.881"/><use xlink:href="#2" y="26.052"/><use xlink:href="#1" y="28.223"/><use xlink:href="#2" y="30.394"/></svg><svg x="1953"><use xlink:href="#a"/><use xlink:href="#b" x="-.004" y="30.369"/><use xlink:href="#1"/><use xlink:href="#2" y="2.171"/><use xlink:href="#1" y="4.342"/><use xlink:href="#2" y="6.513"/><use xlink:href="#1" y="8.684"/><use xlink:href="#2" y="10.855"/><use xlink:href="#1" y="13.026"/><use xlink:href="#2" y="15.197"/><use xlink:href="#1" y="17.368"/><use xlink:href="#2" y="19.539"/><use xlink:href="#1" y="21.71"/><use xlink:href="#2" y="23.881"/><use xlink:href="#1" y="26.052"/><use xlink:href="#2" y="28.223"/></svg><svg x="2016"><use xlink:href="#a"/><use xlink:href="#b" x="1.996" y="30.369"/><use xlink:href="#2"/><use xlink:href="#1" y="2.171"/><use xlink:href="#2" y="4.342"/><use xlink:href="#1" y="6.513"/><use xlink:href="#2" y="8.684"/><use xlink:href="#1" y="10.855"/><use xlink:href="#2" y="13.026"/><use xlink:href="#1" y="15.197"/><use xlink:href="#2" y="17.368"/><use xlink:href="#1" y="19.539"/><use xlink:href="#2" y="21.71"/><use xlink:href="#1" y="23.881"/><use xlink:href="#2" y="26.052"/><use xlink:href="#1" y="28.223"/><use xlink:href="#2" y="30.394"/></svg><svg x="2079"><use xlink:href="#a"/><use xlink:href="#b" x="-.004" y="30.369"/><use xlink:href="#1"/><use xlink:href="#2" y="2.171"/><use xlink:href="#1" y="4.342"/><use xlink:href="#2" y="6.513"/><use xlink:href="#1" y="8.684"/><use xlink:href="#2" y="10.855"/><use xlink:href="#1" y="13.026"/><use xlink:href="#2" y="15.197"/><use xlink:href="#1" y="17.368"/><use xlink:href="#2" y="19.539"/><use xlink:href="#1" y="21.71"/><use xlink:href="#2" y="23.881"/><use xlink:href="#1" y="26.052"/><use xlink:href="#2" y="28.223"/></svg><svg x="2142"><use xlink:href="#a"/><use xlink:href="#b" x="1.996" y="30.369"/><use xlink:href="#2"/><use xlink:href="#1" y="2.171"/><use xlink:href="#2" y="4.342"/><use xlink:href="#1" y="6.513"/><use xlink:href="#2" y="8.684"/><use xlink:href="#1" y="10.855"/><use xlink:href="#2" y="13.026"/><use xlink:href="#1" y="15.197"/><use xlink:href="#2" y="17.368"/><use xlink:href="#1" y="19.539"/><use xlink:href="#2" y="21.71"/><use xlink:href="#1" y="23.881"/><use xlink:href="#2" y="26.052"/><use xlink:href="#1" y="28.223"/><use xlink:href="#2" y="30.394"/></svg><svg x="2205"><use xlink:href="#a"/><use xlink:href="#b" x="-.004" y="30.369"/><use xlink:href="#1"/><use xlink:href="#2" y="2.171"/><use xlink:href="#1" y="4.342"/><use xlink:href="#2" y="6.513"/><use xlink:href="#1" y="8.684"/><use xlink:href="#2" y="10.855"/><use xlink:href="#1" y="13.026"/><use xlink:href="#2" y="15.197"/><use xlink:href="#1" y="17.368"/><use xlink:href="#2" y="19.539"/><use xlink:href="#1" y="21.71"/><use xlink:href="#2" y="23.881"/><use xlink:href="#1" y="26.052"/><text y="29.893" class="f">$</text><text x="2.004" y="29.893" class="f">exit</text></svg></svg></g></g></svg></svg>